<svg width="30" height="30" viewBox="0 0 30 30" fill="none" xmlns="http://www.w3.org/2000/svg">
<g clip-path="url(#clip0_43_291)">
<path d="M3.9624 9.2998L14.9999 15.6873L25.9624 9.3373M14.9999 27.0123V15.6748" stroke="white" stroke-width="1.5" stroke-linecap="round" stroke-linejoin="round"/>
<path d="M12.4125 3.1L5.73755 6.8125C4.22505 7.65 2.98755 9.75 2.98755 11.475V18.5375C2.98755 20.2625 4.22505 22.3625 5.73755 23.2L12.4125 26.9125C13.8375 27.7 16.175 27.7 17.6 26.9125L24.275 23.2C25.7875 22.3625 27.0251 20.2625 27.0251 18.5375V11.475C27.0251 9.75 25.7875 7.65 24.275 6.8125L17.6 3.1C16.1625 2.3 13.8375 2.3 12.4125 3.1Z" stroke="white" stroke-width="1.5" stroke-linecap="round" stroke-linejoin="round"/>
<path d="M21.25 16.55V11.975L9.38745 5.125" stroke="white" stroke-width="1.5" stroke-linecap="round" stroke-linejoin="round"/>
</g>
<defs>
<clipPath id="clip0_43_291">
<rect width="30" height="30" fill="white"/>
</clipPath>
</defs>
</svg>
