<svg width="38" height="36" viewBox="0 0 38 36" fill="none" xmlns="http://www.w3.org/2000/svg">
<path d="M9.06818 10.8394C9.32091 10.663 9.6386 10.5798 9.97734 10.6401C10.6322 10.7567 11.0777 11.3952 10.9611 12.0501L8.73373 24.5607L21.2443 26.788C21.8992 26.9046 22.3447 27.5431 22.2281 28.198C22.1115 28.8528 21.473 29.2983 20.8181 29.1817L7.11069 26.7413C6.4558 26.6247 6.01032 25.9862 6.12692 25.3313L8.56739 11.6239C8.6277 11.2852 8.81545 11.0157 9.06818 10.8394Z" fill="#FCA311"/>
<path d="M6.85264 24.3899L29.2389 8.77019C29.7843 8.38967 30.5521 8.52637 30.9326 9.07173C31.3131 9.61709 31.1764 10.3849 30.6311 10.7654L8.24477 26.3851C7.69942 26.7656 6.93162 26.6289 6.5511 26.0836C6.17059 25.5382 6.30729 24.7704 6.85264 24.3899Z" fill="#FCA311"/>
</svg>
