<svg width="38" height="36" viewBox="0 0 38 36" fill="none" xmlns="http://www.w3.org/2000/svg">
<path d="M28.2039 24.502C27.9515 24.6787 27.6339 24.7625 27.2951 24.7027C26.64 24.5872 26.1935 23.9495 26.309 23.2944L28.5156 10.7801L16.0013 8.57356C15.3463 8.45805 14.8997 7.82032 15.0152 7.16524C15.1307 6.51017 15.7685 6.06362 16.4235 6.17913L30.135 8.59681C30.7901 8.71232 31.2366 9.35004 31.1211 10.0051L28.7034 23.7166C28.6437 24.0554 28.4564 24.3252 28.2039 24.502Z" fill="#FF1010"/>
<path d="M30.397 10.9476L8.03667 26.6045C7.49194 26.9859 6.72392 26.8505 6.3425 26.3058C5.96108 25.761 6.0965 24.993 6.64122 24.6116L29.0015 8.95474C29.5463 8.57332 30.3143 8.70874 30.6957 9.25347C31.0771 9.7982 30.9417 10.5662 30.397 10.9476Z" fill="#FF1010"/>
</svg>
