<svg width="38" height="36" viewBox="0 0 38 36" fill="none" xmlns="http://www.w3.org/2000/svg">
<path d="M28.2037 24.502C27.9513 24.6787 27.6337 24.7625 27.2949 24.7027C26.6398 24.5872 26.1932 23.9495 26.3088 23.2944L28.5154 10.7801L16.0011 8.57356C15.346 8.45805 14.8995 7.82032 15.015 7.16524C15.1305 6.51017 15.7682 6.06362 16.4233 6.17913L30.1348 8.59681C30.7899 8.71232 31.2364 9.35004 31.1209 10.0051L28.7032 23.7166C28.6434 24.0554 28.4561 24.3252 28.2037 24.502Z" fill="#292D32"/>
<path d="M30.3967 10.9476L8.03642 26.6045C7.4917 26.9859 6.72367 26.8505 6.34225 26.3058C5.96083 25.761 6.09625 24.993 6.64098 24.6116L29.0013 8.95474C29.546 8.57332 30.314 8.70874 30.6955 9.25347C31.0769 9.7982 30.9415 10.5662 30.3967 10.9476Z" fill="#292D32"/>
</svg>
