<svg width="40" height="40" viewBox="0 0 40 40" fill="none" xmlns="http://www.w3.org/2000/svg">
<path d="M30.7721 39.9564H9.22791C4.13023 39.9564 0 35.8076 0 30.7099V16.9238C0 14.3935 1.56279 11.2122 3.57209 9.64936L13.6 1.83541C16.614 -0.508767 21.4326 -0.620395 24.5581 1.57495L36.0558 9.63076C38.2698 11.1749 40 14.4866 40 17.1843V30.7285C40 35.8076 35.8698 39.9564 30.7721 39.9564ZM15.3116 4.03076L5.28372 11.8447C3.96279 12.8866 2.7907 15.2494 2.7907 16.9238V30.7099C2.7907 34.2634 5.67442 37.1657 9.22791 37.1657H30.7721C34.3256 37.1657 37.2093 34.282 37.2093 30.7285V17.1843C37.2093 15.3982 35.9256 12.9238 34.4558 11.9191L22.9581 3.86332C20.8372 2.37495 17.3395 2.44936 15.3116 4.03076Z" fill="#14213D"/>
<path d="M20.0001 32.5145C19.2373 32.5145 18.6047 31.882 18.6047 31.1192V25.5378C18.6047 24.775 19.2373 24.1425 20.0001 24.1425C20.7629 24.1425 21.3954 24.775 21.3954 25.5378V31.1192C21.3954 31.882 20.7629 32.5145 20.0001 32.5145Z" fill="#14213D"/>
</svg>
