<svg width="40" height="38" viewBox="0 0 40 38" fill="none" xmlns="http://www.w3.org/2000/svg">
<path d="M19.9815 25.9072C16.1339 25.9072 13.0112 22.7845 13.0112 18.9369C13.0112 15.0894 16.1339 11.9667 19.9815 11.9667C23.8291 11.9667 26.9518 15.0894 26.9518 18.9369C26.9518 22.7845 23.8291 25.9072 19.9815 25.9072ZM19.9815 14.7548C17.6767 14.7548 15.7993 16.6321 15.7993 18.9369C15.7993 21.2418 17.6767 23.1191 19.9815 23.1191C22.2863 23.1191 24.1636 21.2418 24.1636 18.9369C24.1636 16.6321 22.2863 14.7548 19.9815 14.7548Z" fill="#14213D"/>
<path d="M25.948 37.877C25.5576 37.877 25.1673 37.8213 24.777 37.7283C23.6245 37.4124 22.658 36.6875 22.0446 35.6651L21.8216 35.2934C20.7249 33.3975 19.2193 33.3975 18.1227 35.2934L17.9182 35.6466C17.3048 36.6875 16.3383 37.4309 15.1859 37.7283C14.0149 38.0443 12.8067 37.877 11.7844 37.2637L8.58736 35.4235C7.45353 34.773 6.63569 33.7135 6.28253 32.4309C5.94796 31.1484 6.11524 29.8287 6.7658 28.6949C7.30483 27.7469 7.45353 26.8919 7.13755 26.3529C6.82156 25.8138 6.0223 25.4979 4.92565 25.4979C2.2119 25.4979 0 23.286 0 20.5722V17.3008C0 14.5871 2.2119 12.3752 4.92565 12.3752C6.0223 12.3752 6.82156 12.0592 7.13755 11.5202C7.45353 10.9811 7.32342 10.1261 6.7658 9.17816C6.11524 8.04433 5.94796 6.70604 6.28253 5.4421C6.6171 4.15958 7.43494 3.1001 8.58736 2.44954L11.803 0.609391C13.9033 -0.635962 16.6729 0.0889443 17.9368 2.22649L18.1599 2.59824C19.2565 4.49415 20.7621 4.49415 21.8587 2.59824L22.0632 2.24508C23.3271 0.0889443 26.0967 -0.635962 28.2156 0.627978L31.4126 2.46813C32.5465 3.11868 33.3643 4.17816 33.7175 5.46069C34.052 6.74322 33.8848 8.06292 33.2342 9.19675C32.6952 10.1447 32.5465 10.9997 32.8625 11.5388C33.1784 12.0778 33.9777 12.3938 35.0744 12.3938C37.7881 12.3938 40 14.6057 40 17.3194V20.5908C40 23.3046 37.7881 25.5164 35.0744 25.5164C33.9777 25.5164 33.1784 25.8324 32.8625 26.3715C32.5465 26.9105 32.6766 27.7655 33.2342 28.7135C33.8848 29.8473 34.0706 31.1856 33.7175 32.4495C33.3829 33.7321 32.5651 34.7915 31.4126 35.4421L28.197 37.2822C27.4907 37.6726 26.7286 37.877 25.948 37.877ZM19.9814 30.9997C21.6357 30.9997 23.1784 32.0406 24.2379 33.8808L24.4424 34.2339C24.6654 34.6243 25.0372 34.9031 25.4833 35.0146C25.9294 35.1261 26.3755 35.0704 26.7472 34.8473L29.9628 32.9886C30.4461 32.7098 30.8178 32.2451 30.9665 31.6875C31.1152 31.1298 31.0409 30.5536 30.7621 30.0704C29.7026 28.2488 29.5725 26.3715 30.3903 24.9402C31.2082 23.509 32.8996 22.6912 35.0186 22.6912C36.2082 22.6912 37.1561 21.7432 37.1561 20.5536V17.2823C37.1561 16.1112 36.2082 15.1447 35.0186 15.1447C32.8996 15.1447 31.2082 14.3269 30.3903 12.8956C29.5725 11.4644 29.7026 9.58708 30.7621 7.76552C31.0409 7.28225 31.1152 6.70604 30.9665 6.14842C30.8178 5.5908 30.4647 5.14471 29.9814 4.84731L26.7658 3.00716C25.9665 2.52389 24.9071 2.8027 24.4238 3.62054L24.2193 3.9737C23.1599 5.81385 21.6171 6.85474 19.9628 6.85474C18.3085 6.85474 16.7658 5.81385 15.7063 3.9737L15.5019 3.60195C15.0372 2.82129 13.9963 2.54248 13.197 3.00716L9.98141 4.8659C9.49814 5.14471 9.12639 5.60939 8.97769 6.16701C8.829 6.72463 8.90335 7.30084 9.18216 7.78411C10.2416 9.60567 10.3717 11.483 9.5539 12.9142C8.73606 14.3454 7.04461 15.1633 4.92565 15.1633C3.73606 15.1633 2.7881 16.1112 2.7881 17.3008V20.5722C2.7881 21.7432 3.73606 22.7098 4.92565 22.7098C7.04461 22.7098 8.73606 23.5276 9.5539 24.9588C10.3717 26.3901 10.2416 28.2674 9.18216 30.0889C8.90335 30.5722 8.829 31.1484 8.97769 31.706C9.12639 32.2637 9.47955 32.7098 9.96283 33.0072L13.1784 34.8473C13.5688 35.0889 14.0335 35.1447 14.461 35.0332C14.9071 34.9217 15.2788 34.6243 15.5204 34.2339L15.7249 33.8808C16.7844 32.0592 18.3271 30.9997 19.9814 30.9997Z" fill="#14213D"/>
</svg>
