<svg width="30" height="30" viewBox="0 0 30 30" fill="none" xmlns="http://www.w3.org/2000/svg">
<path d="M20.5124 4.99993C22.9374 4.99993 24.8874 6.96243 24.8874 9.37493C24.8874 11.7374 23.0124 13.6624 20.6749 13.7499C20.5669 13.7374 20.4579 13.7374 20.3499 13.7499M22.9249 24.9999C23.8249 24.8124 24.6749 24.4499 25.3749 23.9124C27.3249 22.4499 27.3249 20.0374 25.3749 18.5749C24.6874 18.0499 23.8499 17.6999 22.9624 17.4999M11.4499 13.5874C11.3249 13.5749 11.1749 13.5749 11.0374 13.5874C9.60266 13.5387 8.24321 12.9335 7.24694 11.8999C6.25067 10.8663 5.69583 9.48549 5.6999 8.04993C5.6999 4.98743 8.1749 2.49993 11.2499 2.49993C12.7202 2.4734 14.1408 3.03204 15.1992 4.05294C16.2576 5.07384 16.8671 6.47338 16.8937 7.94368C16.9202 9.41397 16.3615 10.8346 15.3406 11.893C14.3197 12.9514 12.9202 13.5609 11.4499 13.5874ZM5.1999 18.1999C2.1749 20.2249 2.1749 23.5249 5.1999 25.5374C8.6374 27.8374 14.2749 27.8374 17.7124 25.5374C20.7374 23.5124 20.7374 20.2124 17.7124 18.1999C14.2874 15.9124 8.6499 15.9124 5.1999 18.1999Z" stroke="white" stroke-width="1.5" stroke-linecap="round" stroke-linejoin="round"/>
</svg>
