<svg width="41" height="41" viewBox="0 0 41 41" fill="none" xmlns="http://www.w3.org/2000/svg">
<path d="M39 26.0501V14.9501C39 5.70012 35.3 2.00012 26.05 2.00012H14.95C5.7 2.00012 2 5.70012 2 14.9501V26.0501C2 35.3001 5.7 39.0001 14.95 39.0001H26.05C35.3 39.0001 39 35.3001 39 26.0501Z" stroke="#14213D" stroke-width="3" stroke-linecap="round" stroke-linejoin="round"/>
<path d="M2.96204 11.4539H38.038" stroke="#14213D" stroke-width="3" stroke-linecap="round" stroke-linejoin="round"/>
<path d="M14.062 2.20386V11.1949" stroke="#14213D" stroke-width="3" stroke-linecap="round" stroke-linejoin="round"/>
<path d="M26.938 2.20386V10.3624" stroke="#14213D" stroke-width="3" stroke-linecap="round" stroke-linejoin="round"/>
<path d="M16.3375 25.0328V22.8128C16.3375 19.9638 18.354 18.7983 20.8145 20.2228L22.7385 21.3328L24.6625 22.4428C27.123 23.8673 27.123 26.1983 24.6625 27.6228L22.7385 28.7328L20.8145 29.8428C18.354 31.2673 16.3375 30.1018 16.3375 27.2528V25.0328Z" stroke="#14213D" stroke-width="3" stroke-miterlimit="10" stroke-linecap="round" stroke-linejoin="round"/>
</svg>
